<svg xmlns="http://www.w3.org/2000/svg" viewBox="0 0 2484 1164" width="2484" height="1164">
	<defs>
		<clipPath clipPathUnits="userSpaceOnUse" id="cp1">
			<path d="M-752 -1412L3248 -1412L3248 2588L-752 2588Z" />
		</clipPath>
	</defs>
	<style>
		tspan { white-space:pre }
		.shp0 { fill: #824398 } 
	</style>
	<g id="Page 1" clip-path="url(#cp1)">
		<path id="Path 1" fill-rule="evenodd" class="shp0" d="M877.15 615.53L877.15 515.75L755.87 515.75L755.87 615.53L709.33 615.53L709.33 368.74L755.87 368.74L755.87 472.74L877.15 472.74L877.15 368.74L923.34 368.74L923.34 615.53L877.15 615.53ZM1212.79 568.64L1083.75 568.64L1062.6 615.18L1012.18 615.18L1122.89 368.39L1173.65 368.39L1284.36 615.18L1233.59 615.18L1212.79 568.64ZM1148.27 420.21L1102.44 525.27L1194.1 525.27L1148.27 420.21ZM1524.45 427.97C1515.99 413.87 1492.72 400.47 1465.92 400.47C1431.37 400.47 1414.8 414.92 1414.8 433.26C1414.8 454.76 1440.19 460.76 1469.8 464.28C1521.28 470.63 1569.23 484.02 1569.23 542.9C1569.23 597.9 1520.57 621.52 1465.57 621.52C1415.16 621.52 1376.37 606.01 1358.04 560.88L1396.82 540.79C1407.75 567.93 1436.31 579.92 1466.28 579.92C1495.54 579.92 1523.04 569.7 1523.04 542.9C1523.04 519.63 1498.71 510.11 1465.92 506.59C1415.51 500.59 1368.97 487.2 1368.97 431.85C1368.97 381.08 1419.03 360.28 1464.51 359.92C1502.94 359.92 1542.78 370.85 1561.47 408.93L1524.45 427.97ZM1859.73 615.18L1674.99 615.18L1674.99 368.39L1859.73 368.39L1859.73 413.51L1721.18 413.51L1721.18 470.28L1854.8 470.28L1854.8 513.64L1721.18 513.64L1721.18 569.34L1859.73 569.34L1859.73 615.18ZM2150.24 615.18L1965.5 615.18L1965.5 368.39L2150.24 368.39L2150.24 413.51L2011.68 413.51L2011.68 470.28L2145.3 470.28L2145.3 513.64L2011.68 513.64L2011.68 569.34L2150.24 569.34L2150.24 615.18ZM2457.32 439.95C2457.32 458.99 2448.15 477.32 2425.24 487.55C2454.15 496.36 2464.72 527.04 2464.72 542.55C2464.72 597.55 2423.47 615.18 2372.35 615.18L2255.3 615.18L2255.3 368.38L2372.35 368.38C2421.01 368.38 2457.32 390.24 2457.32 439.95ZM2301.14 467.45L2372.35 467.45C2401.61 467.45 2411.13 455.11 2411.13 441.01C2411.13 429.73 2401.97 410.69 2372.35 410.69L2301.14 410.69L2301.14 467.45ZM2301.14 571.81L2372.35 571.81C2391.39 571.81 2418.54 565.47 2418.54 542.2C2418.54 519.99 2391.39 508.35 2372.35 508.35L2301.14 508.35L2301.14 571.81ZM1008.81 891.8L990.84 891.8L893.35 800.64L893.35 891.53L879.08 891.53L879.08 706.85L893.35 706.85L893.35 791.13L983.18 706.85L1000.36 706.85L1000.36 708.17L907.35 795.36L1008.81 890.74L1008.81 891.8ZM1395.1 891.8L1395.1 807.78L1277.26 807.78L1277.26 891.8L1262.99 891.8L1262.99 706.85L1277.26 706.85L1277.26 794.83L1395.1 794.83L1395.1 706.85L1409.37 706.85L1409.37 891.8L1395.1 891.8ZM1832.39 891.8L1812.04 846.36L1701.6 846.36L1681.52 891.8L1666.2 891.8L1749.16 706.85L1764.75 706.85L1847.71 891.8L1832.39 891.8ZM1806.5 833.14L1756.82 720.59L1707.15 833.14L1806.5 833.14ZM2112.99 706.85L2237.44 859.83L2237.44 706.85L2251.44 706.85L2251.44 891.8L2245.89 891.8L2121.18 739.08L2121.18 891.8L2106.92 891.8L2106.92 706.85L2112.99 706.85ZM32.81 545.93C37.31 484.3 51.79 424.21 75.85 367.31C95.68 320.42 121.69 276.49 153.16 236.72C166.82 219.46 181.68 202.77 197.32 187.13C210.05 174.4 223.51 162.15 237.33 150.72C261.41 130.8 287.31 112.77 314.32 97.15L349.79 76.62L349.79 226.08L340.09 233.16C314.6 251.76 291.04 273.16 270.06 296.76C237.94 332.92 212.17 373.73 193.48 418.07C179.16 452.05 169.24 487.58 163.9 524.01L456.98 524.01L456.98 38.47L475.52 34.38C503.06 28.3 531.4 24.26 559.74 22.37L584.95 20.69L584.95 1155.31L559.74 1153.63C531.4 1151.74 503.06 1147.7 475.52 1141.62L456.98 1137.53L456.98 651.99L163.9 651.99C169.24 688.42 179.16 723.95 193.48 757.93C212.17 802.27 237.94 843.08 270.06 879.24C291.04 902.84 314.6 924.24 340.09 942.83L349.79 949.91L349.79 1099.38L314.32 1078.85C287.31 1063.22 261.4 1045.2 237.33 1025.28C223.51 1013.85 210.06 1001.6 197.32 988.87C181.67 973.22 166.82 956.54 153.16 939.28C121.69 899.51 95.68 855.57 75.85 808.69C51.79 751.79 37.31 691.7 32.81 630.07C31.79 616.15 31.28 602 31.28 588C31.28 574 31.79 559.85 32.81 545.93ZM2251.44 996.78L879.08 996.78L879.08 961.55L2251.44 961.55L2251.44 996.78Z" />
	</g>
</svg>