<svg xmlns="http://www.w3.org/2000/svg" viewBox="0 0 2468 1192" width="2468" height="1192">
	<defs>
		<clipPath clipPathUnits="userSpaceOnUse" id="cp1">
			<path d="M-760 -1400L3240 -1400L3240 2600L-760 2600Z" />
		</clipPath>
	</defs>
	<style>
		tspan { white-space:pre }
		.shp0 { fill: #ffffff } 
	</style>
	<g id="Page 1" clip-path="url(#cp1)">
		<path id="Path 1" fill-rule="evenodd" class="shp0" d="M869.15 627.53L869.15 527.75L747.87 527.75L747.87 627.53L701.33 627.53L701.33 380.74L747.87 380.74L747.87 484.74L869.15 484.74L869.15 380.74L915.34 380.74L915.34 627.53L869.15 627.53ZM1204.79 580.64L1075.75 580.64L1054.6 627.18L1004.18 627.18L1114.89 380.39L1165.65 380.39L1276.36 627.18L1225.59 627.18L1204.79 580.64ZM1140.27 432.21L1094.44 537.27L1186.1 537.27L1140.27 432.21ZM1516.45 439.97C1507.99 425.87 1484.72 412.47 1457.92 412.47C1423.37 412.47 1406.8 426.92 1406.8 445.26C1406.8 466.76 1432.19 472.76 1461.8 476.28C1513.28 482.63 1561.23 496.02 1561.23 554.9C1561.23 609.9 1512.57 633.52 1457.57 633.52C1407.16 633.52 1368.37 618.01 1350.04 572.88L1388.82 552.79C1399.75 579.93 1428.31 591.92 1458.28 591.92C1487.54 591.92 1515.04 581.7 1515.04 554.9C1515.04 531.63 1490.71 522.11 1457.92 518.59C1407.51 512.59 1360.97 499.2 1360.97 443.85C1360.97 393.08 1411.03 372.28 1456.51 371.92C1494.94 371.92 1534.78 382.85 1553.47 420.93L1516.45 439.97ZM1851.73 627.18L1666.99 627.18L1666.99 380.39L1851.73 380.39L1851.73 425.51L1713.18 425.51L1713.18 482.28L1846.8 482.28L1846.8 525.64L1713.18 525.64L1713.18 581.34L1851.73 581.34L1851.73 627.18ZM2142.24 627.18L1957.5 627.18L1957.5 380.39L2142.24 380.39L2142.24 425.51L2003.68 425.51L2003.68 482.28L2137.3 482.28L2137.3 525.64L2003.68 525.64L2003.68 581.34L2142.24 581.34L2142.24 627.18ZM2449.32 451.95C2449.32 470.99 2440.15 489.32 2417.24 499.55C2446.15 508.36 2456.72 539.04 2456.72 554.55C2456.72 609.55 2415.47 627.18 2364.35 627.18L2247.3 627.18L2247.3 380.38L2364.35 380.38C2413.01 380.38 2449.32 402.24 2449.32 451.95ZM2293.14 479.45L2364.35 479.45C2393.61 479.45 2403.13 467.11 2403.13 453.01C2403.13 441.73 2393.97 422.69 2364.35 422.69L2293.14 422.69L2293.14 479.45ZM2293.14 583.81L2364.35 583.81C2383.39 583.81 2410.54 577.47 2410.54 554.2C2410.54 531.99 2383.39 520.35 2364.35 520.35L2293.14 520.35L2293.14 583.81ZM1000.81 903.8L982.84 903.8L885.35 812.64L885.35 903.53L871.08 903.53L871.08 718.85L885.35 718.85L885.35 803.13L975.18 718.85L992.36 718.85L992.36 720.17L899.35 807.36L1000.81 902.74L1000.81 903.8ZM1387.1 903.8L1387.1 819.78L1269.26 819.78L1269.26 903.8L1254.99 903.8L1254.99 718.85L1269.26 718.85L1269.26 806.83L1387.1 806.83L1387.1 718.85L1401.37 718.85L1401.37 903.8L1387.1 903.8Z" />
		<path id="Path 2" fill-rule="evenodd" class="shp0" d="M1824.39 903.8L1804.04 858.36L1693.6 858.36L1673.52 903.8L1658.2 903.8L1741.16 718.85L1756.75 718.85L1839.71 903.8L1824.39 903.8ZM1798.5 845.14L1748.82 732.59L1699.15 845.14L1798.5 845.14ZM2104.99 718.85L2229.44 871.83L2229.44 718.85L2243.44 718.85L2243.44 903.8L2237.89 903.8L2113.18 751.08L2113.18 903.8L2098.92 903.8L2098.92 718.85L2104.99 718.85ZM24.81 557.93C29.31 496.3 43.79 436.21 67.85 379.31C87.68 332.42 113.69 288.49 145.16 248.72C158.82 231.46 173.68 214.77 189.32 199.13C202.05 186.4 215.51 174.15 229.33 162.72C253.41 142.8 279.31 124.77 306.32 109.15L341.79 88.62L341.79 238.08L332.09 245.16C306.6 263.76 283.04 285.16 262.06 308.76C229.94 344.92 204.17 385.73 185.48 430.07C171.16 464.05 161.24 499.58 155.9 536.01L448.98 536.01L448.98 50.47L467.52 46.38C495.06 40.3 523.4 36.26 551.74 34.37L576.95 32.69L576.95 1167.31L551.74 1165.63C523.4 1163.74 495.06 1159.7 467.52 1153.62L448.98 1149.53L448.98 663.99L155.9 663.99C161.24 700.42 171.16 735.95 185.48 769.93C204.17 814.27 229.94 855.08 262.06 891.24C283.04 914.84 306.6 936.24 332.09 954.83L341.79 961.91L341.79 1111.38L306.32 1090.85C279.31 1075.22 253.4 1057.2 229.33 1037.28C215.51 1025.85 202.06 1013.6 189.32 1000.87C173.67 985.22 158.82 968.54 145.16 951.28C113.69 911.51 87.68 867.57 67.85 820.69C43.79 763.79 29.31 703.7 24.81 642.07C23.79 628.15 23.28 614 23.28 600C23.28 586 23.79 571.85 24.81 557.93ZM2243.44 1008.78L871.08 1008.78L871.08 973.55L2243.44 973.55L2243.44 1008.78Z" />
	</g>
</svg>