<?xml version="1.0" encoding="utf-8"?>
<svg viewBox="-449.724 -68.993 1216.725 567.312" xmlns="http://www.w3.org/2000/svg">
  <defs>
    <clipPath id="clippath0" transform="">
      <path d="M 0 2000 L 2000 2000 L 2000 0 L 0 0 Z" style="fill: none; clip-rule: nonzero;"/>
    </clipPath>
  </defs>
  <g transform="matrix(1, 0, 0, -1, -26.785828, 228.427429)">
    <path d="M 0 0 L 0 49.888 L -60.641 49.888 L -60.641 0 L -83.91 0 L -83.91 123.396 L -60.641 123.396 L -60.641 71.393 L 0 71.393 L 0 123.396 L 23.092 123.396 L 23.092 0 Z" style="fill-opacity: 1; fill: rgb(255, 255, 255);"/>
  </g>
  <g transform="matrix(1, 0, 0, -1, 108.772888, 130.768188)">
    <path d="M 0 0 L -22.917 -52.531 L 22.917 -52.531 Z M 32.259 -74.214 L -32.259 -74.214 L -42.836 -97.483 L -68.044 -97.483 L -12.692 25.913 L 12.692 25.913 L 68.044 -97.483 L 42.66 -97.483 Z" style="fill-opacity: 1; fill: rgb(255, 255, 255);"/>
  </g>
  <g style="clip-path: url(#clippath0);" transform="matrix(1, 0, 0, -1, -841.361802, 1214.662631)">
    <g transform="translate(1138.2249 1080.0161)">
      <path d="M 0 0 C -4.231 7.051 -15.865 13.75 -29.263 13.75 C -46.538 13.75 -54.823 6.522 -54.823 -2.644 C -54.823 -13.397 -42.131 -16.394 -27.324 -18.157 C -1.586 -21.33 22.388 -28.028 22.388 -57.468 C 22.388 -84.967 -1.939 -96.778 -29.439 -96.778 C -54.647 -96.778 -74.038 -89.021 -83.204 -66.457 L -63.813 -56.41 C -58.349 -69.983 -44.07 -75.977 -29.086 -75.977 C -14.455 -75.977 -0.705 -70.864 -0.705 -57.468 C -0.705 -45.833 -12.868 -41.073 -29.263 -39.31 C -54.471 -36.313 -77.74 -29.615 -77.74 -1.939 C -77.74 23.446 -52.708 33.846 -29.968 34.022 C -10.753 34.022 9.167 28.558 18.509 9.52 Z" style="fill-opacity: 1; fill: rgb(255, 255, 255);"/>
    </g>
  </g>
  <g style="clip-path: url(#clippath0);" transform="matrix(1, 0, 0, -1, -841.361802, 1214.662631)">
    <g transform="translate(1305.8666 986.4114)">
      <path d="M 0 0 L -92.37 0 L -92.37 123.396 L 0 123.396 L 0 100.832 L -69.278 100.832 L -69.278 72.451 L -2.468 72.451 L -2.468 50.768 L -69.278 50.768 L -69.278 22.917 L 0 22.917 Z" style="fill-opacity: 1; fill: rgb(255, 255, 255);"/>
    </g>
  </g>
  <g style="clip-path: url(#clippath0);" transform="matrix(1, 0, 0, -1, -841.361802, 1214.662631)">
    <g transform="translate(1451.1202 986.4114)">
      <path d="M 0 0 L -92.37 0 L -92.37 123.396 L 0 123.396 L 0 100.832 L -69.278 100.832 L -69.278 72.451 L -2.468 72.451 L -2.468 50.768 L -69.278 50.768 L -69.278 22.917 L 0 22.917 Z" style="fill-opacity: 1; fill: rgb(255, 255, 255);"/>
    </g>
  </g>
  <g style="clip-path: url(#clippath0);" transform="matrix(1, 0, 0, -1, -841.361802, 1214.662631)">
    <g transform="translate(1526.5682 1008.0937)">
      <path d="M 0 0 L 35.608 0 C 45.128 0 58.701 3.173 58.701 14.807 C 58.701 25.913 45.128 31.731 35.608 31.731 L 0 31.731 Z M 0 52.179 L 35.608 52.179 C 50.239 52.179 54.999 58.349 54.999 65.4 C 54.999 71.041 50.416 80.56 35.608 80.56 L 0 80.56 Z M 78.092 65.929 C 78.092 56.41 73.508 47.244 62.05 42.131 C 76.505 37.724 81.794 22.388 81.794 14.631 C 81.794 -12.868 61.169 -21.682 35.608 -21.682 L -22.917 -21.682 L -22.917 101.714 L 35.608 101.714 C 59.935 101.714 78.092 90.784 78.092 65.929" style="fill-opacity: 1; fill: rgb(255, 255, 255);"/>
    </g>
  </g>
  <g style="clip-path: url(#clippath0);" transform="matrix(1, 0, 0, -1, -841.361802, 1214.662631)">
    <g transform="translate(880.4047 848.1005)">
      <path d="M 0 0 L -8.983 0 L -57.73 45.577 L -57.73 0.132 L -64.864 0.132 L -64.864 92.475 L -57.73 92.475 L -57.73 50.332 L -12.814 92.475 L -4.227 92.475 L -4.227 91.814 L -50.729 48.219 L 0 0.528 Z" style="fill-opacity: 1; fill: rgb(255, 255, 255);"/>
    </g>
  </g>
  <g style="clip-path: url(#clippath0);" transform="matrix(1, 0, 0, -1, -841.361802, 1214.662631)">
    <g transform="translate(1073.55 848.1005)">
      <path d="M 0 0 L 0 42.01 L -58.919 42.01 L -58.919 0 L -66.053 0 L -66.053 92.475 L -58.919 92.475 L -58.919 48.483 L 0 48.483 L 0 92.475 L 7.134 92.475 L 7.134 0 Z" style="fill-opacity: 1; fill: rgb(255, 255, 255);"/>
    </g>
  </g>
  <g style="clip-path: url(#clippath0);" transform="matrix(1, 0, 0, -1, -841.361802, 1214.662631)">
    <g transform="translate(1279.2482 877.4282)">
      <path d="M 0 0 L -24.836 56.277 L -49.672 0 Z M 12.946 -29.328 L 2.774 -6.606 L -52.446 -6.606 L -62.486 -29.328 L -70.149 -29.328 L -28.667 63.147 L -20.873 63.147 L 20.608 -29.328 Z" style="fill-opacity: 1; fill: rgb(255, 255, 255);"/>
    </g>
  </g>
  <g style="clip-path: url(#clippath0);" transform="matrix(1, 0, 0, -1, -841.361802, 1214.662631)">
    <g transform="translate(1432.4956 940.575)">
      <path d="M 0 0 L 62.222 -76.49 L 62.222 0 L 69.224 0 L 69.224 -92.475 L 66.45 -92.475 L 4.096 -16.117 L 4.096 -92.475 L -3.038 -92.475 L -3.038 0 Z" style="fill-opacity: 1; fill: rgb(255, 255, 255);"/>
    </g>
  </g>
  <g style="clip-path: url(#clippath0);" transform="matrix(1, 0, 0, -1, -841.361802, 1214.662631)">
    <g transform="translate(392.4035 1021.035)">
      <path d="M 0 0 L 0 0 C 2.249 30.814 9.49 60.862 21.522 89.31 C 31.438 112.753 44.443 134.721 60.177 154.604 C 67.006 163.236 74.436 171.579 82.257 179.401 C 88.622 185.766 95.352 191.891 102.26 197.605 C 114.301 207.567 127.252 216.579 140.755 224.392 L 158.493 234.657 L 158.493 159.923 L 153.639 156.383 C 140.896 147.086 129.117 136.387 118.628 124.583 C 102.565 106.507 89.682 86.1 80.336 63.929 C 73.174 46.941 68.218 29.177 65.548 10.959 L 212.085 10.959 L 212.085 253.73 L 221.356 255.777 C 235.127 258.817 249.295 260.837 263.467 261.781 L 276.071 262.621 L 276.071 -304.691 L 263.467 -303.851 C 249.294 -302.906 235.126 -300.886 221.356 -297.846 L 212.085 -295.799 L 212.085 -53.028 L 65.548 -53.028 C 68.218 -71.245 73.174 -89.011 80.336 -105.999 C 89.682 -128.17 102.565 -148.576 118.628 -166.653 C 129.117 -178.457 140.896 -189.155 153.639 -198.452 L 158.493 -201.992 L 158.493 -276.726 L 140.755 -266.461 C 127.249 -258.646 114.298 -249.634 102.261 -239.675 C 95.354 -233.962 88.624 -227.837 82.256 -221.47 C 74.433 -213.645 67.004 -205.303 60.177 -196.673 C 44.443 -176.79 31.438 -154.821 21.522 -131.379 C 9.49 -102.932 2.249 -72.884 0 -42.069 C -0.508 -35.111 -0.766 -28.034 -0.766 -21.035 C -0.766 -14.036 -0.508 -6.959 0 0" style="fill-opacity: 1; fill: rgb(255, 255, 255);"/>
    </g>
  </g>
  <g style="clip-path: url(#clippath0);" transform="matrix(1, 0, 0, -1, -841.361802, 1214.662631)">
    <g transform="translate(815.5406 804.4182)">
      <path d="M 0 0 L 686.179 0" style="fill-opacity: 1; fill: rgb(255, 255, 255);"/>
    </g>
  </g>
  <g style="clip-path: url(#clippath0);" transform="matrix(1, 0, 0, -1, -841.361802, 1214.662631)">
    <g transform="">
      <path d="M 1501.719 795.611 L 815.54 795.611 L 815.54 813.226 L 1501.719 813.226 Z" style="fill-opacity: 1; fill: rgb(255, 255, 255);"/>
    </g>
  </g>
</svg>