<?xml version="1.0" encoding="UTF-8" standalone="no"?>
<svg
   xmlns:dc="http://purl.org/dc/elements/1.1/"
   xmlns:cc="http://creativecommons.org/ns#"
   xmlns:rdf="http://www.w3.org/1999/02/22-rdf-syntax-ns#"
   xmlns:svg="http://www.w3.org/2000/svg"
   xmlns="http://www.w3.org/2000/svg"
   viewBox="0 0 2666.6667 2666.6667"
   height="2666.6667"
   width="2666.6667"
   xml:space="preserve"
   id="svg2"
   version="1.1"><metadata
     id="metadata8"><rdf:RDF><cc:Work
         rdf:about=""><dc:format>image/svg+xml</dc:format><dc:type
           rdf:resource="http://purl.org/dc/dcmitype/StillImage" /></cc:Work></rdf:RDF></metadata><defs
     id="defs6"><clipPath
       id="clipPath26"
       clipPathUnits="userSpaceOnUse"><path
         id="path24"
         d="M 0,2000 H 2000 V 0 H 0 Z" /></clipPath></defs><g
     transform="matrix(1.3333333,0,0,-1.3333333,0,2666.6667)"
     id="g10"><g
       transform="translate(814.576,986.2352)"
       id="g12"><path
         id="path14"
         style="fill:#683996;fill-opacity:1;fill-rule:nonzero;stroke:none"
         d="M 0,0 V 49.888 H -60.641 V 0 H -83.91 v 123.396 h 23.269 V 71.393 H 0 v 52.003 H 23.092 V 0 Z" /></g><g
       transform="translate(950.1347,1083.8944)"
       id="g16"><path
         id="path18"
         style="fill:#683996;fill-opacity:1;fill-rule:nonzero;stroke:none"
         d="M 0,0 -22.917,-52.531 H 22.917 Z M 32.259,-74.214 H -32.259 L -42.836,-97.483 H -68.044 L -12.692,25.913 H 12.692 L 68.044,-97.483 H 42.66 Z" /></g><g
       id="g20"><g
         clip-path="url(#clipPath26)"
         id="g22"><g
           transform="translate(1138.2249,1080.0161)"
           id="g28"><path
             id="path30"
             style="fill:#683996;fill-opacity:1;fill-rule:nonzero;stroke:none"
             d="m 0,0 c -4.231,7.051 -15.865,13.75 -29.263,13.75 -17.275,0 -25.56,-7.228 -25.56,-16.394 0,-10.753 12.692,-13.75 27.499,-15.513 25.738,-3.173 49.712,-9.871 49.712,-39.311 0,-27.499 -24.327,-39.31 -51.827,-39.31 -25.208,0 -44.599,7.757 -53.765,30.321 l 19.391,10.047 c 5.464,-13.573 19.743,-19.567 34.727,-19.567 14.631,0 28.381,5.113 28.381,18.509 0,11.635 -12.163,16.395 -28.558,18.158 -25.208,2.997 -48.477,9.695 -48.477,37.371 0,25.385 25.032,35.785 47.772,35.961 19.215,0 39.135,-5.464 48.477,-24.502 z" /></g><g
           transform="translate(1305.8666,986.4114)"
           id="g32"><path
             id="path34"
             style="fill:#683996;fill-opacity:1;fill-rule:nonzero;stroke:none"
             d="M 0,0 H -92.37 V 123.396 H 0 V 100.832 H -69.278 V 72.451 h 66.81 V 50.768 h -66.81 V 22.917 l 69.278,0 z" /></g><g
           transform="translate(1451.1202,986.4114)"
           id="g36"><path
             id="path38"
             style="fill:#683996;fill-opacity:1;fill-rule:nonzero;stroke:none"
             d="M 0,0 H -92.37 V 123.396 H 0 V 100.832 H -69.278 V 72.451 h 66.81 V 50.768 h -66.81 V 22.917 l 69.278,0 z" /></g><g
           transform="translate(1526.5682,1008.0937)"
           id="g40"><path
             id="path42"
             style="fill:#683996;fill-opacity:1;fill-rule:nonzero;stroke:none"
             d="m 0,0 h 35.608 c 9.52,0 23.093,3.173 23.093,14.807 0,11.106 -13.573,16.924 -23.093,16.924 H 0 Z m 0,52.179 h 35.608 c 14.631,0 19.391,6.17 19.391,13.221 0,5.641 -4.583,15.16 -19.391,15.16 H 0 Z m 78.092,13.75 c 0,-9.519 -4.584,-18.685 -16.042,-23.798 14.455,-4.407 19.744,-19.743 19.744,-27.5 0,-27.499 -20.625,-36.313 -46.186,-36.313 h -58.525 v 123.396 h 58.525 c 24.327,0 42.484,-10.93 42.484,-35.785" /></g><g
           transform="translate(880.4047,848.1005)"
           id="g44"><path
             id="path46"
             style="fill:#683996;fill-opacity:1;fill-rule:nonzero;stroke:none"
             d="M 0,0 H -8.983 L -57.73,45.577 V 0.132 h -7.134 v 92.343 h 7.134 V 50.332 l 44.916,42.143 h 8.587 V 91.814 L -50.729,48.219 0,0.528 Z" /></g><g
           transform="translate(1073.55,848.1005)"
           id="g48"><path
             id="path50"
             style="fill:#683996;fill-opacity:1;fill-rule:nonzero;stroke:none"
             d="M 0,0 V 42.01 H -58.919 V 0 h -7.134 v 92.475 h 7.134 V 48.483 H 0 V 92.475 H 7.134 V 0 Z" /></g><g
           transform="translate(1279.2482,877.4282)"
           id="g52"><path
             id="path54"
             style="fill:#683996;fill-opacity:1;fill-rule:nonzero;stroke:none"
             d="M 0,0 -24.836,56.277 -49.672,0 Z M 12.946,-29.328 2.774,-6.606 h -55.22 l -10.04,-22.722 h -7.663 l 41.482,92.475 h 7.794 l 41.481,-92.475 z" /></g><g
           transform="translate(1432.4956,940.575)"
           id="g56"><path
             id="path58"
             style="fill:#683996;fill-opacity:1;fill-rule:nonzero;stroke:none"
             d="M 0,0 62.222,-76.49 V 0 h 7.002 V -92.475 H 66.45 L 4.096,-16.117 v -76.358 h -7.134 l 0,92.475 z" /></g><g
           transform="translate(392.4035,1021.035)"
           id="g60"><path
             id="path62"
             style="fill:#683996;fill-opacity:1;fill-rule:nonzero;stroke:none"
             d="m 0,0 v 0 c 2.249,30.814 9.49,60.862 21.522,89.31 9.916,23.443 22.921,45.411 38.655,65.294 6.829,8.632 14.259,16.975 22.08,24.797 6.365,6.365 13.095,12.49 20.003,18.204 12.041,9.962 24.992,18.974 38.495,26.787 l 17.738,10.265 v -74.734 l -4.854,-3.54 c -12.743,-9.297 -24.522,-19.996 -35.011,-31.8 C 102.565,106.507 89.682,86.1 80.336,63.929 73.174,46.941 68.218,29.177 65.548,10.959 H 212.085 V 253.73 l 9.271,2.047 c 13.771,3.04 27.939,5.06 42.111,6.004 l 12.604,0.84 v -567.312 l -12.604,0.84 c -14.173,0.945 -28.341,2.965 -42.111,6.005 l -9.271,2.047 V -53.028 H 65.548 c 2.67,-18.217 7.626,-35.983 14.788,-52.971 9.346,-22.171 22.229,-42.577 38.292,-60.654 10.489,-11.804 22.268,-22.502 35.011,-31.799 l 4.854,-3.54 v -74.734 l -17.738,10.265 c -13.506,7.815 -26.457,16.827 -38.494,26.786 -6.907,5.713 -13.637,11.838 -20.005,18.205 -7.823,7.825 -15.252,16.167 -22.079,24.797 -15.734,19.883 -28.739,41.852 -38.655,65.294 C 9.49,-102.932 2.249,-72.884 0,-42.069 c -0.508,6.958 -0.766,14.035 -0.766,21.034 0,6.999 0.258,14.076 0.766,21.035" /></g><g
           transform="translate(815.5406,804.4182)"
           id="g64"><path
             id="path66"
             style="fill:#683996;fill-opacity:1;fill-rule:nonzero;stroke:none"
             d="M 0,0 H 686.179" /></g><path
           id="path68"
           style="fill:#683996;fill-opacity:1;fill-rule:nonzero;stroke:none"
           d="M 1501.719,795.611 H 815.54 v 17.615 h 686.179 z" /></g></g></g></svg>